<svg width="234" height="32" viewBox="0 0 234 32" xmlns="http://www.w3.org/2000/svg"><title>logo-mashapesvg</title><g fill="none" fill-rule="evenodd"><path d="M146.737 20.262L146.726 22h-9.713V6.237h9.713v1.738h-7.579v5.236h6.138v1.672h-6.138v5.379h7.59zm4.367-7.788c.242-.271.499-.517.77-.737.271-.22.56-.409.864-.566a4.384 4.384 0 0 1 2.073-.49c.609 0 1.146.1 1.612.303a3.12 3.12 0 0 1 1.166.857c.311.37.548.816.709 1.337.161.52.242 1.096.242 1.727V22h-1.969v-7.095c0-.843-.192-1.498-.577-1.963-.386-.466-.97-.699-1.755-.699a3.3 3.3 0 0 0-1.623.418 5.343 5.343 0 0 0-1.391 1.133V22h-1.969V10.857h1.177c.279 0 .451.136.517.407l.154 1.21zm13.849 9.702c-.88 0-1.556-.246-2.03-.737-.473-.491-.709-1.199-.709-2.123v-6.82h-1.342a.439.439 0 0 1-.297-.104c-.08-.07-.121-.178-.121-.325v-.781l1.826-.231.451-3.443a.434.434 0 0 1 .451-.374h.99v3.839h3.223v1.419h-3.223v6.688c0 .47.114.818.341 1.045.227.227.52.341.88.341.205 0 .383-.027.534-.082.15-.056.28-.116.39-.182.11-.066.203-.126.28-.181a.367.367 0 0 1 .204-.083c.103 0 .194.062.275.187l.572.935a3.648 3.648 0 0 1-1.221.742 4.14 4.14 0 0 1-1.474.27zm11.924-6.963c0-.455-.064-.87-.192-1.248a2.804 2.804 0 0 0-.561-.98 2.503 2.503 0 0 0-.897-.637 3.027 3.027 0 0 0-1.199-.226c-.939 0-1.681.273-2.227.82-.547.546-.886 1.303-1.018 2.271h6.094zm1.584 5.225a3.719 3.719 0 0 1-.869.765 5.41 5.41 0 0 1-1.084.533 6.75 6.75 0 0 1-1.193.313 7.29 7.29 0 0 1-1.221.105c-.77 0-1.48-.13-2.129-.39a4.671 4.671 0 0 1-1.683-1.145c-.473-.502-.841-1.123-1.105-1.864-.264-.74-.396-1.591-.396-2.552 0-.777.12-1.503.357-2.178a5.134 5.134 0 0 1 1.029-1.755 4.735 4.735 0 0 1 1.639-1.165c.645-.283 1.371-.424 2.178-.424.667 0 1.285.112 1.853.336.569.223 1.06.546 1.475.968.414.421.738.942.973 1.562.235.62.352 1.325.352 2.117 0 .308-.033.513-.099.616-.066.103-.19.154-.374.154h-7.447c.022.704.12 1.316.291 1.837.173.52.413.955.721 1.303.308.349.675.61 1.1.781.425.173.902.259 1.43.259.491 0 .915-.057 1.27-.17a6.085 6.085 0 0 0 1.562-.738c.173-.113.321-.17.446-.17a.43.43 0 0 1 .374.187l.55.715zm4.433-7.348c.352-.763.785-1.358 1.298-1.787.513-.43 1.14-.644 1.881-.644.235 0 .46.026.677.077.216.051.408.132.577.242l-.143 1.463c-.044.183-.154.275-.33.275-.103 0-.253-.022-.451-.066a3.105 3.105 0 0 0-.671-.066c-.352 0-.665.051-.94.154a2.201 2.201 0 0 0-.738.457c-.216.201-.41.45-.583.748a6.412 6.412 0 0 0-.467 1.017V22h-1.969V10.857h1.122c.213 0 .36.04.44.121.08.08.136.22.165.418l.132 1.694zm8.118 6.226c.36.484.752.825 1.177 1.023.425.198.902.297 1.43.297 1.041 0 1.84-.37 2.398-1.111.557-.74.836-1.797.836-3.168 0-.726-.064-1.35-.192-1.87-.129-.52-.314-.948-.556-1.281a2.161 2.161 0 0 0-.891-.732 2.964 2.964 0 0 0-1.199-.231c-.638 0-1.197.147-1.677.44-.48.293-.923.708-1.326 1.243v5.39zm-.099-6.732a5.772 5.772 0 0 1 1.628-1.397c.616-.352 1.32-.528 2.112-.528a4.06 4.06 0 0 1 1.749.368 3.6 3.6 0 0 1 1.331 1.09c.367.48.649 1.076.847 1.787.198.711.297 1.529.297 2.453 0 .821-.11 1.586-.33 2.294a5.526 5.526 0 0 1-.952 1.837c-.414.517-.92.923-1.518 1.22-.597.298-1.27.446-2.018.446-.682 0-1.267-.115-1.755-.346a4.123 4.123 0 0 1-1.292-.963v4.928h-1.969V10.857h1.177c.279 0 .451.136.517.407l.176 1.32zm12.32.506c.352-.763.785-1.358 1.298-1.787.513-.43 1.14-.644 1.881-.644.235 0 .46.026.677.077.216.051.408.132.577.242l-.143 1.463c-.044.183-.154.275-.33.275-.103 0-.253-.022-.451-.066a3.105 3.105 0 0 0-.671-.066c-.352 0-.665.051-.94.154a2.201 2.201 0 0 0-.738.457c-.216.201-.41.45-.583.748a6.412 6.412 0 0 0-.467 1.017V22h-1.969V10.857h1.122c.213 0 .36.04.44.121.08.08.136.22.165.418l.132 1.694zm8.217-2.233V22h-1.958V10.857h1.958zm.418-3.498c0 .19-.038.368-.115.534-.077.165-.18.311-.308.44a1.414 1.414 0 0 1-.996.412c-.19 0-.368-.037-.534-.11a1.383 1.383 0 0 1-.434-.303 1.501 1.501 0 0 1-.297-.44 1.376 1.376 0 0 1 0-1.078c.073-.172.172-.322.297-.45.125-.129.27-.23.435-.303a1.376 1.376 0 0 1 1.078 0c.172.073.322.174.45.303.129.128.232.278.309.45.077.173.115.354.115.545zm9.284 5.335a.434.434 0 0 1-.407.242.766.766 0 0 1-.374-.121c-.14-.08-.31-.17-.512-.27a4.804 4.804 0 0 0-.72-.274 3.437 3.437 0 0 0-.99-.127 2.9 2.9 0 0 0-.891.127c-.264.084-.49.2-.677.346-.187.147-.33.317-.428.511a1.373 1.373 0 0 0-.149.633c0 .286.082.524.248.715.165.19.383.356.654.495.271.14.58.262.924.368.345.107.698.22 1.061.341.364.122.717.255 1.062.402.345.147.653.33.924.55.271.22.49.49.654.808.166.32.248.703.248 1.15 0 .513-.092.988-.275 1.425a3.109 3.109 0 0 1-.814 1.133c-.36.319-.8.57-1.32.753-.52.183-1.122.275-1.804.275-.777 0-1.481-.126-2.112-.38a5.352 5.352 0 0 1-1.606-.973l.462-.748a.671.671 0 0 1 .209-.22.564.564 0 0 1 .308-.077c.132 0 .271.051.418.154.147.103.324.216.534.341.209.125.463.238.764.341.3.103.675.154 1.122.154.381 0 .715-.05 1.001-.149a2.1 2.1 0 0 0 .715-.401 1.59 1.59 0 0 0 .423-.583c.092-.22.138-.455.138-.704 0-.308-.082-.563-.248-.765a2.089 2.089 0 0 0-.654-.517 5.334 5.334 0 0 0-.93-.373 68.422 68.422 0 0 1-1.067-.336 12.024 12.024 0 0 1-1.067-.402 3.751 3.751 0 0 1-.929-.566 2.566 2.566 0 0 1-.654-.841c-.166-.334-.248-.74-.248-1.216a3.008 3.008 0 0 1 1.034-2.26 3.792 3.792 0 0 1 1.243-.71c.491-.176 1.052-.264 1.683-.264.733 0 1.391.115 1.975.347a4.673 4.673 0 0 1 1.512.951l-.44.715zm10.494 2.519c0-.455-.064-.87-.192-1.248a2.804 2.804 0 0 0-.561-.98 2.503 2.503 0 0 0-.897-.637 3.027 3.027 0 0 0-1.199-.226c-.939 0-1.681.273-2.227.82-.547.546-.886 1.303-1.018 2.271h6.094zm1.584 5.225a3.719 3.719 0 0 1-.869.765 5.41 5.41 0 0 1-1.083.533c-.386.14-.783.244-1.194.313a7.29 7.29 0 0 1-1.221.105c-.77 0-1.48-.13-2.129-.39a4.671 4.671 0 0 1-1.683-1.145c-.473-.502-.841-1.123-1.105-1.864-.264-.74-.396-1.591-.396-2.552 0-.777.12-1.503.357-2.178a5.134 5.134 0 0 1 1.029-1.755 4.735 4.735 0 0 1 1.639-1.165c.645-.283 1.371-.424 2.178-.424.667 0 1.285.112 1.854.336.568.223 1.06.546 1.474.968.414.421.738.942.973 1.562.235.62.352 1.325.352 2.117 0 .308-.033.513-.099.616-.066.103-.19.154-.374.154h-7.447c.022.704.12 1.316.292 1.837.172.52.412.955.72 1.303.308.349.675.61 1.1.781.425.173.902.259 1.43.259.491 0 .915-.057 1.27-.17a6.085 6.085 0 0 0 1.562-.738c.173-.113.321-.17.446-.17a.43.43 0 0 1 .374.187l.55.715z" fill="#A3BBCC"/><path d="M44.342 22V10.714h1.661c.352 0 .583.165.693.495l.176.836a6.42 6.42 0 0 1 .621-.605c.217-.183.448-.341.694-.473a3.526 3.526 0 0 1 1.721-.429c.711 0 1.296.192 1.755.578.458.385.8.896 1.028 1.534.176-.374.396-.695.66-.963.264-.267.554-.485.869-.654.315-.169.65-.293 1.007-.374.355-.08.713-.121 1.072-.121.623 0 1.177.095 1.661.286.484.19.891.47 1.221.836.33.367.581.814.754 1.342.172.528.258 1.133.258 1.815V22h-2.717v-7.183c0-.719-.158-1.26-.473-1.623-.315-.363-.777-.544-1.386-.544a2.07 2.07 0 0 0-.775.143 1.848 1.848 0 0 0-.627.413c-.18.18-.321.405-.424.676a2.631 2.631 0 0 0-.154.935V22h-2.728v-7.183c0-.755-.152-1.305-.456-1.65-.305-.345-.75-.517-1.337-.517-.396 0-.764.097-1.105.291-.342.195-.659.46-.952.798V22h-2.717zm24.387-4.818a14.85 14.85 0 0 0-1.98.204c-.535.099-.964.225-1.287.379-.323.154-.554.334-.693.539a1.17 1.17 0 0 0-.209.671c0 .477.141.818.424 1.023.282.205.65.308 1.105.308.557 0 1.04-.1 1.447-.303.407-.201.804-.507 1.193-.918v-1.903zm-6.226-4.895c1.298-1.188 2.86-1.782 4.686-1.782.66 0 1.25.108 1.771.324.52.217.96.517 1.32.902.36.386.632.846.82 1.381.187.535.28 1.122.28 1.76V22h-1.232c-.257 0-.455-.038-.594-.116-.14-.077-.25-.232-.33-.467l-.242-.814a9.822 9.822 0 0 1-.836.676 4.921 4.921 0 0 1-.847.49 4.55 4.55 0 0 1-.94.303c-.334.07-.703.104-1.106.104a4.34 4.34 0 0 1-1.32-.192 2.9 2.9 0 0 1-1.045-.578 2.593 2.593 0 0 1-.682-.957c-.161-.381-.242-.825-.242-1.331 0-.286.048-.57.143-.852.095-.283.251-.552.468-.809.216-.257.496-.499.841-.726a5.468 5.468 0 0 1 1.27-.594 10.977 10.977 0 0 1 1.755-.412 17.4 17.4 0 0 1 2.288-.193v-.66c0-.755-.161-1.314-.484-1.678-.323-.363-.788-.544-1.397-.544-.44 0-.805.051-1.094.154-.29.103-.545.218-.765.346-.22.129-.42.244-.6.347-.18.103-.379.154-.599.154a.784.784 0 0 1-.484-.149 1.24 1.24 0 0 1-.319-.346l-.484-.869zm18.315.627a.725.725 0 0 1-.231.248.598.598 0 0 1-.308.071.97.97 0 0 1-.423-.11c-.15-.073-.325-.156-.523-.247a4.786 4.786 0 0 0-.677-.248 3.24 3.24 0 0 0-.896-.11c-.535 0-.955.114-1.26.341a1.062 1.062 0 0 0-.456.891.85.85 0 0 0 .237.61c.157.166.366.31.626.435s.556.236.886.335c.33.1.665.208 1.006.325.342.117.677.251 1.007.402.33.15.625.34.886.572.26.23.469.507.627.83.157.323.236.711.236 1.166a3.8 3.8 0 0 1-.292 1.502 3.244 3.244 0 0 1-.863 1.188c-.381.333-.852.593-1.413.78-.562.188-1.209.281-1.942.281-.389 0-.768-.035-1.139-.104a6.72 6.72 0 0 1-1.067-.292 5.905 5.905 0 0 1-.945-.44 4.592 4.592 0 0 1-.765-.55l.627-1.034a.887.887 0 0 1 .286-.286.802.802 0 0 1 .418-.099c.169 0 .328.048.479.143.15.095.324.198.522.308.198.11.43.213.698.308.268.095.607.143 1.018.143.323 0 .6-.038.83-.116.232-.077.422-.177.572-.302.15-.125.26-.27.33-.434.07-.166.105-.336.105-.512a.912.912 0 0 0-.236-.649 2.07 2.07 0 0 0-.628-.44 6.056 6.056 0 0 0-.89-.335 29.439 29.439 0 0 1-1.023-.325 9.463 9.463 0 0 1-1.023-.413 3.487 3.487 0 0 1-.891-.599 2.713 2.713 0 0 1-.627-.891c-.158-.352-.237-.777-.237-1.276 0-.462.092-.902.275-1.32.183-.418.453-.783.809-1.095.355-.311.799-.56 1.33-.748.532-.187 1.146-.28 1.843-.28.777 0 1.485.128 2.123.385.638.257 1.17.594 1.595 1.012l-.616.979zm5.5-.99c.44-.41.924-.744 1.452-1.001.528-.257 1.148-.385 1.859-.385.616 0 1.162.104 1.639.313.477.21.874.503 1.194.88.319.378.56.83.725 1.354a5.75 5.75 0 0 1 .248 1.732V22h-2.717v-7.183c0-.69-.158-1.223-.473-1.6-.315-.378-.796-.567-1.441-.567-.47 0-.91.106-1.32.319-.41.213-.8.502-1.166.869V22h-2.717V5.654h2.717v6.27zm15.653 5.258a14.85 14.85 0 0 0-1.98.204c-.535.099-.964.225-1.287.379-.323.154-.554.334-.693.539a1.17 1.17 0 0 0-.209.671c0 .477.141.818.423 1.023.283.205.651.308 1.106.308.557 0 1.04-.1 1.447-.303.407-.201.804-.507 1.193-.918v-1.903zm-6.226-4.895c1.298-1.188 2.86-1.782 4.686-1.782.66 0 1.25.108 1.771.324.52.217.96.517 1.32.902.36.386.632.846.82 1.381.187.535.28 1.122.28 1.76V22h-1.232c-.257 0-.455-.038-.594-.116-.14-.077-.25-.232-.33-.467l-.242-.814a9.822 9.822 0 0 1-.836.676 4.921 4.921 0 0 1-.847.49 4.55 4.55 0 0 1-.94.303c-.334.07-.703.104-1.106.104a4.34 4.34 0 0 1-1.32-.192 2.9 2.9 0 0 1-1.045-.578 2.593 2.593 0 0 1-.682-.957c-.161-.381-.242-.825-.242-1.331 0-.286.048-.57.143-.852.095-.283.251-.552.468-.809.216-.257.496-.499.841-.726a5.468 5.468 0 0 1 1.27-.594 10.977 10.977 0 0 1 1.755-.412 17.4 17.4 0 0 1 2.288-.193v-.66c0-.755-.161-1.314-.484-1.678-.323-.363-.788-.544-1.397-.544-.44 0-.805.051-1.094.154-.29.103-.545.218-.765.346-.22.129-.42.244-.6.347-.18.103-.379.154-.599.154a.784.784 0 0 1-.484-.149 1.24 1.24 0 0 1-.319-.346l-.484-.869zm14.146 6.787c.308.374.643.638 1.006.792.364.154.758.231 1.183.231.41 0 .781-.077 1.111-.231.33-.154.61-.389.841-.704.232-.315.41-.713.534-1.194.125-.48.187-1.046.187-1.699 0-.66-.053-1.22-.16-1.677-.106-.459-.258-.831-.456-1.117a1.803 1.803 0 0 0-.72-.627 2.247 2.247 0 0 0-.963-.198c-.565 0-1.045.12-1.441.357-.396.239-.77.574-1.122 1.007v5.06zm-.143-6.82a5.9 5.9 0 0 1 1.573-1.265c.587-.323 1.276-.484 2.068-.484a3.7 3.7 0 0 1 1.689.385c.51.257.95.629 1.32 1.117.37.487.656 1.088.858 1.803.201.716.302 1.535.302 2.459 0 .843-.114 1.624-.341 2.343a5.733 5.733 0 0 1-.974 1.87c-.421.528-.93.94-1.528 1.238-.598.297-1.267.445-2.008.445-.63 0-1.17-.097-1.617-.291a3.95 3.95 0 0 1-1.199-.809v4.62h-2.717V10.714h1.661c.352 0 .583.165.693.495l.22 1.045zm17.193 2.805c0-.352-.05-.684-.148-.995a2.366 2.366 0 0 0-.446-.82 2.072 2.072 0 0 0-.753-.556 2.586 2.586 0 0 0-1.062-.203c-.785 0-1.402.224-1.853.671-.452.447-.74 1.082-.864 1.903h5.126zm-5.181 1.639c.044.58.147 1.08.308 1.502.161.421.374.77.638 1.044.264.276.577.48.94.616.364.136.765.204 1.205.204.44 0 .82-.051 1.139-.154.319-.103.597-.216.836-.341.238-.125.447-.238.627-.341.18-.103.353-.154.522-.154.227 0 .396.084.506.253l.781.99c-.3.352-.638.647-1.012.886a5.676 5.676 0 0 1-1.171.572 6.403 6.403 0 0 1-1.243.302 8.9 8.9 0 0 1-1.227.088c-.785 0-1.514-.13-2.189-.39a4.9 4.9 0 0 1-1.76-1.155c-.499-.51-.891-1.14-1.177-1.893-.286-.751-.429-1.622-.429-2.612 0-.77.125-1.494.374-2.172a5.224 5.224 0 0 1 1.073-1.771 5.05 5.05 0 0 1 1.704-1.194c.672-.293 1.429-.44 2.272-.44.711 0 1.368.114 1.969.341a4.29 4.29 0 0 1 1.551.995c.433.437.772.972 1.017 1.606.246.635.369 1.359.369 2.173 0 .41-.044.687-.132.83-.088.144-.257.215-.506.215h-6.985z" fill="#FFF"/><circle fill="#FFF" cx="16" cy="16" r="16"/><path d="M25.029 18.751l-.068-.003-.005-.055c-.013-.175-.271-.649-.37-.817l-.049-.084.286-.022c-.235-.302-.29-.636-.149-.93.126-.263.399-.454.65-.454.032.003.656.066.625 1.225-.029 1.108-.829 1.14-.92 1.14zm-3.492-.297l-.03.054c-.128.265-.278.621-.408.943.716-.183 2.129-.33 1.001 2.988-.319.936-1.226 1.73-2.532 2.246.16.029.339.071.532.124a18.114 18.114 0 0 1-4.326.533l.129-.026c-2.705-.002-5.664-.892-6.177-2.877-.401-1.55 1.355-2.892 1.372-2.904l.069-.051c-.001 0-2.16-.223-2.261-2.125-.101-1.902.975-1.861 1.546-2.977.572-1.116 2.151-.446 4.007-.498 1.855-.052 2.01.211 3.72-.128 1.711-.339 3.802.882 4.844 2.316 1.013 1.395-1.091 1.791-1.486 2.382zm-14.123-.578c-.099.168-.357.642-.371.817l-.004.055-.068.003c-.091 0-.891-.032-.92-1.14-.031-1.159.593-1.222.619-1.225h.001c.256 0 .53.191.655.454.141.294.086.628-.149.93l.286.022-.049.084z" fill="#ABB3C9"/><path d="M25.349 16.201l-.011-.001h-.011c-.06 0-.121.01-.181.025v-.123h.005c.132-.995.186-1.898.165-2.718 0-5.875-5.116-7.947-5.116-7.947v.507a22.5 22.5 0 0 0-1.759-1.271v.833a19.64 19.64 0 0 0-.481-.275c-.446-.3-1.096-.763-1.43-1.132l-.456 1.236-.344-1.113c-.129.391-1.272 1.108-1.272 1.108.003-.514-.153-1.334-.153-1.334l-2.291 1.846-.217-.676s-1.165.747-1.85 1.556V6.33s-3.426 2.267-3.426 6.837v.028c-.036.626-.026 1.298.034 2.023.039.845.096.884.096.884v.099c-.034.003-.833.084-.798 1.416.022.813.441 1.16.815 1.274.019.606.397 6.745 8.214 7.228h2.213c7.79-.481 8.192-6.579 8.213-7.219.38-.109.817-.454.839-1.283.035-1.332-.764-1.413-.798-1.416zM6.976 18.693h-.008c-.085 0-.828-.03-.856-1.082-.029-1.116.561-1.164.561-1.164.439 0 1.022.673.374 1.377l.308.025s-.361.616-.379.844zm15.026-1.564c-.065 1.343-1.319 2.327-1.331 2.337l-.068.054.069.05c.017.013 1.37.718.968 2.271-.514 1.992-3.013 3.011-5.722 3.011-2.709 0-5.207-1.019-5.722-3.011-.402-1.553.952-2.258.969-2.271l.069-.05-.068-.054c-.013-.01-1.266-.994-1.331-2.337-.038-.774.324-1.52 1.073-2.217.507-.473 1.188-.71 2.024-.71 1.272 0 2.5.551 2.986.843.486-.292 1.714-.843 2.986-.843.837 0 1.517.237 2.024.71.75.697 1.112 1.443 1.074 2.217zm3.886.482c-.028 1.052-.771 1.082-.856 1.082h-.008c-.017-.228-.379-.844-.379-.844l.308-.025c-.648-.704-.065-1.377.374-1.377 0 0 .591.048.561 1.164z" fill="#10313F"/><path d="M20.347 21.155c0 1.301-1.946 2.357-4.347 2.357-2.401 0-4.347-1.056-4.347-2.357 0-1.301 1.946-2.356 4.347-2.356 2.401 0 4.347 1.055 4.347 2.356z" fill="#B4BFD1"/><path d="M9.455 14.153c.565-.503 1.197-.904 1.96-1.081 1.101-.256 2.269-.068 3.317.298.359.125.712.27 1.047.445.208.109.217.152.428.039a7.913 7.913 0 0 1 2.165-.773c.893-.181 1.854-.191 2.716.122 1.047.38 1.699 1.11 2.352 1.937-.441-1.007-1.09-1.866-2.137-2.375-.828-.403-1.793-.505-2.71-.404a7.826 7.826 0 0 0-2.352.65c-.2.09-.225.088-.424 0a7.625 7.625 0 0 0-.563-.229 7.756 7.756 0 0 0-1.292-.351c-.986-.175-2.033-.153-2.966.224-1.168.471-1.906 1.404-2.378 2.485.27-.341.531-.675.837-.987z" fill="#143B4C"/><path d="M16.75 19.924c-.337 0-.704-.137-.841-.193-.138.056-.505.193-.841.193-.425 0-1.115-.226-1.115-.226s-.351-.535.185-1.05c.487-.468 1.73.118 1.73.118h.082s1.192-.533 1.73-.118c.591.457.183 1.05.183 1.05s-.689.226-1.113.226zm2.255 2.314s-1.015.775-3.034.775-3.035-.775-3.035-.775 1.162.403 3.052.403c1.889 0 3.017-.403 3.017-.403z" fill="#D6DCE6"/><path d="M21.692 16.981c-1.414-2.949-5.78-1.211-5.78-1.211s-4.365-1.738-5.779 1.211c0 0-.114-1.914 2.149-2.465 1.469-.358 3.627.811 3.63.81.004.001 2.161-1.168 3.631-.81 2.263.551 2.149 2.465 2.149 2.465zm-7.907 2.007l.008.246c-.585-.015-1.119.271-1.592.564.453-.38.963-.738 1.584-.81zm5.789.81c-.482-.331-1.017-.6-1.631-.59l.011-.245c.644.074 1.166.42 1.62.835z" fill="#99A0BA"/><path d="M20.724 21.709c-.043-.136-.062-.277-.103-.414l-.061.055a4.52 4.52 0 0 1-1.045.673c-.674.323-1.41.52-2.156.622a9.913 9.913 0 0 1-2.998-.045 6.977 6.977 0 0 1-2.036-.663 4.295 4.295 0 0 1-.945-.643c-.038.137-.054.278-.093.413a.61.61 0 0 1-.045-.586c.084-.174.297-.337.512-.3a1.09 1.09 0 0 0-.228.205c-.032.039-.023.039.008.067l.06.054a4.603 4.603 0 0 0 .763.518c.681.37 1.443.599 2.216.718a9.347 9.347 0 0 0 3.239-.066c.707-.142 1.4-.38 2.011-.747.176-.106.344-.221.501-.351.046-.038.092-.078.136-.12.007-.006.017-.013.023-.021.012-.018.013-.016-.005-.038a1.08 1.08 0 0 0-.246-.215c.257-.05.526.182.568.412a.65.65 0 0 1-.076.472zm-3.306-2.342c0 .175-.221.318-.494.318-.275 0-.497-.143-.497-.318 0-.176.222-.317.497-.317.273 0 .494.141.494.317zm.521-.155a.745.745 0 0 0-.509-.585c-.328-.102-.695-.065-1.029-.009.31-.132.716-.199 1.046-.107a.815.815 0 0 1 .401.234.79.79 0 0 1 .081.109c.013.02.126.247.103.253.025.217-.019.434-.178.602.065-.164.112-.318.085-.497zm-2.947.473c-.273 0-.495-.143-.495-.318 0-.176.222-.317.495-.317s.495.141.495.317c0 .175-.222.318-.495.318zm-.913-.84a.798.798 0 0 0-.183.44c-.009.152.037.285.092.424-.263-.278-.233-.693.012-.97a.909.909 0 0 1 .283-.192c.134-.055.286-.074.43-.074a1.83 1.83 0 0 1 .728.145 3.445 3.445 0 0 0-.527-.051c-.296-.005-.644.037-.835.278z" fill="#10313F"/><path d="M12.47 25.232s-.117-.5.818-.343c.935.158 1.967.547 1.967.547s.068-.327.642-.289c.575.039.887.335.887.335s1.344-.565 1.899-.556c.555.01.594-.129.662.074.068.204.059.371 0 .658-.058.287-.331.611-.331.805 0 .195.36 1.293-.146 1.361-.506.068-2.152-.778-2.152-.778s-.117.333-.653.333c-.535 0-.818-.222-.818-.222s-1.792.712-2.093.671c-.303-.041-.322-.337-.283-.606.039-.268.146-.75.088-.796-.059-.046-.487-1.194-.487-1.194z" fill="#61B9E8"/><path d="M13.216 26.511s.045.522.483.522 1.373-.683 1.373-.683.625.437.963.437c.338 0 .617-.437.617-.437s1.99.289 2.522-.359c.531-.649-.124.495-.124.495s.378 1.257-.052 1.36c-.431.102-2.22-.736-2.22-.736s-.474.288-.804.283c-.331-.006-.682-.216-.682-.216s-1.958.727-2.273.594c-.316-.132-.075-1.09.197-1.26z" fill="#4BAAD3"/><path d="M19.676 25.036a.393.393 0 0 0-.227-.266c-.551-.259-2.097.343-2.653.577a.978.978 0 0 0-.765-.36.98.98 0 0 0-.766.361c-.554-.232-2.104-.837-2.656-.578a.393.393 0 0 0-.227.266c-.146.606.278 1.3.433 1.527-.087.238-.282.884-.044 1.274.071.117.215.166.407.166.512 0 1.369-.35 2.125-.718a.986.986 0 0 0 .728.318.983.983 0 0 0 .758-.353c.752.384 1.603.75 2.107.75.184 0 .321-.048.391-.163.238-.39.042-1.036-.044-1.274.155-.227.579-.921.433-1.527zm-6.602 2.633c-.165-.27.021-.876.099-1.068l.034-.085-.055-.073c-.159-.209-.543-.855-.428-1.333.003-.013.008-.027.04-.041.319-.15 1.509.23 2.342.577a.857.857 0 0 0-.04.26v.776c0 .112.021.217.059.314-.961.461-1.9.769-2.051.673zm3.573-.987c0 .324-.276.587-.616.587-.339 0-.615-.263-.615-.587v-.776c0-.323.276-.587.615-.587.34 0 .616.264.616.587v.776zm2.238-.081c.079.192.265.797.107 1.061-.159.097-1.092-.229-2.039-.706a.893.893 0 0 0 .044-.274v-.776a.908.908 0 0 0-.04-.262c.831-.346 2.02-.725 2.338-.575.031.014.036.028.039.041.139.573-.422 1.326-.428 1.333l-.055.074.034.084z" fill="#0D252C"/><path d="M19.485 18.01a.684.684 0 0 1-.448.375l-.053.012h-.001c-.385.069-.783-.203-.905-.617a.848.848 0 0 1 .042-.609.681.681 0 0 1 .449-.375c.401-.105.831.171.958.605a.844.844 0 0 1-.042.609zm-6.446.397l-.054-.009c-.383-.082-.632-.481-.569-.907a.881.881 0 0 1 .298-.542.728.728 0 0 1 .571-.175c.413.055.688.47.622.916-.069.451-.458.772-.868.717z" fill="#0B0B0B"/><path d="M18.934 17.447a.27.27 0 0 1-.318-.205c-.028-.139.07-.274.218-.3a.27.27 0 0 1 .319.203.261.261 0 0 1-.219.302zm-5.583.044a.259.259 0 0 1-.206-.309.27.27 0 0 1 .325-.193.26.26 0 0 1 .207.309.272.272 0 0 1-.326.193z" fill="#FFF"/><path d="M19.237 17.998c-.007.018-.068.168-.279.174a.455.455 0 0 1-.106-.006h-.001l-.003-.001-.036-.005a.036.036 0 0 0-.011-.002l-.036-.009c-.002-.001-.004-.001-.005-.003-.338-.1-.437-.472-.437-.472.012.016.026.029.039.044.331.367.876.276.876.276l-.001.004zm-6.162.169a.493.493 0 0 1-.095-.046l-.033-.02-.011-.007a.43.43 0 0 1-.052-.043l-.004-.005a.096.096 0 0 1-.026-.027c-.209-.222-.153-.55-.153-.55.004.02.011.036.017.055.149.464.688.588.688.588l-.002.002c-.008.007-.128.132-.329.053z" fill="#525365"/></g></svg>